<?xml version="1.0" standalone="no"?>
<!DOCTYPE svg PUBLIC "-//W3C//DTD SVG 20010904//EN"
 "http://www.w3.org/TR/2001/REC-SVG-20010904/DTD/svg10.dtd">
<svg version="1.0" xmlns="http://www.w3.org/2000/svg"
 width="512.000000pt" height="512.000000pt" viewBox="0 0 512.000000 512.000000"
 preserveAspectRatio="xMidYMid meet">

<g transform="translate(0.000000,512.000000) scale(0.100000,-0.100000)"
fill="#000000" stroke="none">
<path d="M3047 5065 c4 -33 7 -109 7 -170 -2 -136 -30 -232 -103 -354 -102
-169 -204 -274 -545 -559 -323 -270 -443 -397 -522 -555 -50 -97 -67 -183 -61
-292 17 -278 192 -523 541 -757 65 -43 121 -77 123 -74 3 3 -27 40 -67 83
-111 120 -186 226 -240 337 -63 130 -79 194 -87 336 -5 101 -3 123 17 180 51
153 150 270 485 575 363 331 484 497 551 755 21 81 23 255 5 330 -17 69 -61
167 -90 200 l-22 25 8 -60z"/>
<path d="M3370 4011 c-477 -197 -744 -440 -806 -732 -21 -97 -13 -199 23 -287
27 -68 34 -81 146 -264 81 -133 107 -208 107 -305 0 -79 -20 -143 -66 -213
-42 -63 -19 -67 58 -9 94 70 189 176 229 256 31 62 34 76 34 158 0 102 -10
126 -140 354 -35 63 -75 144 -87 180 -93 279 107 581 569 859 48 28 79 52 68
51 -11 0 -72 -22 -135 -48z"/>
<path d="M3881 2347 c-75 -16 -79 -37 -8 -37 79 0 151 -27 207 -77 114 -102
128 -245 42 -423 -50 -103 -177 -231 -332 -333 -63 -41 -127 -81 -142 -88 -32
-14 -37 -29 -9 -29 32 0 171 50 278 100 373 175 547 409 479 643 -54 186 -281
293 -515 244z"/>
<path d="M1745 2289 c-411 -61 -630 -167 -532 -256 46 -43 178 -96 317 -127
240 -55 454 -77 812 -83 424 -8 743 18 1038 83 129 29 300 81 300 92 0 4 -31
24 -68 46 l-67 38 -105 -21 c-290 -59 -509 -81 -860 -88 -380 -7 -746 25 -943
82 -211 61 -128 143 218 216 55 12 109 25 120 30 37 15 -96 8 -230 -12z"/>
<path d="M1635 1675 c-185 -48 -248 -94 -220 -161 25 -59 166 -119 385 -163
416 -83 957 -78 1388 14 97 20 264 77 265 90 0 6 -40 33 -88 61 l-88 51 -76
-19 c-489 -117 -1327 -90 -1465 47 -23 24 -20 43 13 76 l29 29 -26 0 c-15 -1
-67 -12 -117 -25z"/>
<path d="M1803 1096 c-39 -13 -88 -34 -108 -46 -39 -24 -67 -73 -57 -99 26
-76 189 -144 450 -188 166 -28 612 -25 778 4 124 23 283 70 342 101 l34 18
-115 67 -114 66 -94 -19 c-264 -53 -668 -53 -878 1 -110 28 -148 59 -122 100
10 17 8 19 -16 19 -16 -1 -60 -11 -100 -24z"/>
<path d="M1293 945 c-268 -55 -464 -135 -543 -221 -76 -82 -47 -157 87 -226
123 -64 291 -110 558 -153 338 -54 614 -75 1007 -75 1007 0 1760 204 1658 450
-22 54 -42 55 -84 4 -65 -78 -174 -132 -371 -184 -325 -86 -751 -126 -1258
-117 -453 8 -840 63 -1095 155 -128 47 -172 83 -172 139 0 73 117 157 297 214
46 14 68 26 60 31 -16 10 -14 10 -144 -17z"/>
<path d="M4249 503 c-87 -94 -348 -212 -629 -283 -569 -144 -1479 -176 -2154
-74 -63 9 -103 11 -109 5 -10 -10 12 -17 135 -46 680 -157 1673 -133 2283 55
297 91 469 204 505 330 11 40 -2 45 -31 13z"/>
</g>
</svg>
