<?xml version="1.0" encoding="utf-8"?>
<svg viewBox="0 0 512 512" xmlns="http://www.w3.org/2000/svg">
  <g transform="matrix(0.1, 0, 0, -0.1, 0, 512)" fill="#000000" stroke="none">
    <path d="M470 4154 c-222 -58 -409 -251 -455 -470 -21 -101 -21 -1097 0 -1198 47 -221 235 -414 460 -471 51 -13 183 -15 912 -15 469 0 853 -2 853 -5 0 -2 38 -222 85 -487 63 -360 89 -489 103 -508 27 -36 75 -47 116 -27 29 13 50 44 132 194 54 98 99 180 101 182 2 3 95 -86 206 -197 270 -268 226 -267 484 -9 185 185 193 194 193 232 0 37 -8 47 -202 242 -126 126 -199 206 -193 212 6 5 77 46 158 90 l148 81 507 0 c564 0 565 0 702 67 100 49 221 169 268 265 69 141 66 107 69 719 4 624 3 642 -64 778 -53 107 -170 224 -273 274 -143 70 -103 67 -1038 67 -559 0 -850 -3 -863 -10 -24 -13 -49 -61 -49 -96 0 -16 12 -38 34 -60 l34 -34 824 0 c898 0 889 0 987 -57 102 -60 181 -177 201 -299 13 -77 13 -981 0 -1058 -27 -168 -157 -308 -321 -345 -26 -6 -243 -11 -542 -11 l-497 0 -631 111 c-375 65 -642 108 -659 104 -64 -14 -86 -70 -67 -172 l7 -43 -812 0 c-512 0 -829 4 -857 11 -163 37 -294 178 -321 345 -13 80 -13 996 0 1065 23 119 103 235 203 294 95 55 98 55 910 55 802 0 790 -1 817 49 20 39 12 91 -19 122 l-29 29 -784 -1 c-649 0 -792 -3 -838 -15z m2356 -2034 c218 -38 399 -71 401 -74 3 -2 -43 -30 -101 -61 -58 -31 -113 -66 -121 -78 -8 -12 -15 -39 -15 -61 0 -39 7 -47 215 -256 l215 -215 -95 -95 -95 -95 -218 218 c-178 177 -223 217 -246 217 -51 0 -83 -26 -127 -107 -56 -104 -81 -145 -85 -141 -2 3 -144 800 -144 813 0 8 10 7 416 -65z" style="fill: rgb(244, 0, 0);"/>
    <path d="M2447 4159 c-21 -12 -47 -67 -47 -100 0 -30 62 -89 94 -89 35 0 83 25 96 49 35 66 -14 151 -87 151 -21 0 -46 -5 -56 -11z" style="fill: rgb(244, 0, 0);"/>
    <path d="M4174 3499 l-29 -30 -3 -324 c-2 -270 0 -330 12 -360 31 -74 134 -81 177 -11 15 24 19 50 19 122 l0 92 73 4 c83 4 135 26 187 78 131 131 95 351 -72 434 -48 24 -61 26 -193 26 l-141 0 -30 -31z m291 -189 c16 -13 20 -67 7 -86 -13 -19 -50 -34 -86 -34 l-36 0 0 71 0 72 50 -5 c27 -3 56 -11 65 -18z" style="fill: rgb(244, 0, 0);"/>
    <path d="M3428 3503 c-14 -9 -31 -27 -37 -40 -7 -15 -11 -118 -11 -277 0 -251 0 -252 26 -304 33 -66 100 -125 173 -153 147 -55 333 17 397 156 23 48 24 58 24 310 0 281 -1 285 -57 314 -46 23 -111 1 -132 -46 -7 -15 -11 -109 -11 -252 0 -215 -1 -230 -20 -254 -40 -51 -133 -54 -176 -6 -17 19 -19 41 -22 258 -2 253 -6 272 -54 297 -35 18 -67 17 -100 -3z" style="fill: rgb(244, 0, 0);"/>
    <path d="M601 3482 c-106 -38 -162 -106 -169 -202 -9 -130 38 -187 213 -258 123 -49 148 -69 129 -99 -29 -46 -117 -36 -198 22 -63 45 -103 46 -148 6 -27 -24 -33 -36 -33 -70 0 -35 7 -47 44 -85 88 -90 252 -131 368 -92 105 35 183 138 183 241 -1 114 -71 189 -238 256 -126 49 -134 55 -108 75 31 22 86 17 146 -16 72 -38 113 -39 151 -1 23 23 29 38 29 72 0 36 -6 47 -39 80 -78 74 -229 106 -330 71z" style="fill: rgb(244, 0, 0);"/>
    <path d="M1172 3480 c-18 -11 -37 -32 -42 -46 -6 -14 -10 -162 -10 -346 0 -281 2 -323 17 -348 33 -57 104 -66 155 -21 l33 29 3 319 c4 354 0 382 -51 413 -40 25 -64 25 -105 0z" style="fill: rgb(244, 0, 0);"/>
    <path d="M1783 3485 c-80 -22 -131 -52 -188 -109 -197 -197 -139 -524 115 -649 60 -30 72 -32 170 -32 96 0 110 2 158 28 126 66 202 196 202 347 0 100 -44 130 -190 130 -135 0 -190 -31 -190 -108 0 -65 31 -93 114 -102 l50 -5 -33 -37 c-69 -78 -182 -71 -259 16 -112 128 -22 325 148 326 27 0 66 -10 98 -25 62 -29 82 -31 121 -11 31 17 51 54 51 97 0 96 -220 176 -367 134z" style="fill: rgb(244, 0, 0);"/>
    <path d="M2424 3491 c-12 -5 -31 -22 -43 -37 -21 -26 -21 -35 -21 -366 l0 -340 29 -29 c39 -38 97 -40 138 -5 l28 24 5 162 5 162 116 -169 c132 -192 161 -217 226 -192 20 8 45 27 57 42 21 28 21 36 18 355 -3 294 -5 330 -21 352 -29 40 -67 54 -111 41 -65 -19 -72 -41 -71 -219 1 -89 -2 -152 -7 -147 -5 6 -55 78 -111 160 -57 83 -115 162 -130 177 -29 30 -74 42 -107 29z" style="fill: rgb(244, 0, 0);"/>
  </g>
</svg>